<svg class="rich-terminal" viewBox="0 0 1458 977.1999999999999" xmlns="http://www.w3.org/2000/svg">
    <!-- Generated with Rich https://www.textualize.io -->
    <style>

    @font-face {
        font-family: "Fira Code";
        src: local("FiraCode-Regular"),
                url("https://cdnjs.cloudflare.com/ajax/libs/firacode/6.2.0/woff2/FiraCode-Regular.woff2") format("woff2"),
                url("https://cdnjs.cloudflare.com/ajax/libs/firacode/6.2.0/woff/FiraCode-Regular.woff") format("woff");
        font-style: normal;
        font-weight: 400;
    }
    @font-face {
        font-family: "Fira Code";
        src: local("FiraCode-Bold"),
                url("https://cdnjs.cloudflare.com/ajax/libs/firacode/6.2.0/woff2/FiraCode-Bold.woff2") format("woff2"),
                url("https://cdnjs.cloudflare.com/ajax/libs/firacode/6.2.0/woff/FiraCode-Bold.woff") format("woff");
        font-style: bold;
        font-weight: 700;
    }

    .terminal-3817147544-matrix {
        font-family: Fira Code, monospace;
        font-size: 20px;
        line-height: 24.4px;
        font-variant-east-asian: full-width;
    }

    .terminal-3817147544-title {
        font-size: 18px;
        font-weight: bold;
        font-family: arial;
    }

    .terminal-3817147544-r1 { fill: #c5c8c6 }
.terminal-3817147544-r2 { fill: #fffcf0 }
.terminal-3817147544-r3 { fill: #9b76c8;font-weight: bold }
.terminal-3817147544-r4 { fill: #205ea6;font-weight: bold }
.terminal-3817147544-r5 { fill: #adaba3 }
.terminal-3817147544-r6 { fill: #9b76c8 }
.terminal-3817147544-r7 { fill: #fffcf0;font-weight: bold }
.terminal-3817147544-r8 { fill: #008000 }
.terminal-3817147544-r9 { fill: #ff0000 }
.terminal-3817147544-r10 { fill: #100f0f }
.terminal-3817147544-r11 { fill: #fffcf0;font-style: italic; }
.terminal-3817147544-r12 { fill: #53514e }
    </style>

    <defs>
    <clipPath id="terminal-3817147544-clip-terminal">
      <rect x="0" y="0" width="1438.6" height="926.1999999999999" />
    </clipPath>
    <clipPath id="terminal-3817147544-line-0">
    <rect x="0" y="1.5" width="1439.6" height="24.65"/>
            </clipPath>
<clipPath id="terminal-3817147544-line-1">
    <rect x="0" y="25.9" width="1439.6" height="24.65"/>
            </clipPath>
<clipPath id="terminal-3817147544-line-2">
    <rect x="0" y="50.3" width="1439.6" height="24.65"/>
            </clipPath>
<clipPath id="terminal-3817147544-line-3">
    <rect x="0" y="74.7" width="1439.6" height="24.65"/>
            </clipPath>
<clipPath id="terminal-3817147544-line-4">
    <rect x="0" y="99.1" width="1439.6" height="24.65"/>
            </clipPath>
<clipPath id="terminal-3817147544-line-5">
    <rect x="0" y="123.5" width="1439.6" height="24.65"/>
            </clipPath>
<clipPath id="terminal-3817147544-line-6">
    <rect x="0" y="147.9" width="1439.6" height="24.65"/>
            </clipPath>
<clipPath id="terminal-3817147544-line-7">
    <rect x="0" y="172.3" width="1439.6" height="24.65"/>
            </clipPath>
<clipPath id="terminal-3817147544-line-8">
    <rect x="0" y="196.7" width="1439.6" height="24.65"/>
            </clipPath>
<clipPath id="terminal-3817147544-line-9">
    <rect x="0" y="221.1" width="1439.6" height="24.65"/>
            </clipPath>
<clipPath id="terminal-3817147544-line-10">
    <rect x="0" y="245.5" width="1439.6" height="24.65"/>
            </clipPath>
<clipPath id="terminal-3817147544-line-11">
    <rect x="0" y="269.9" width="1439.6" height="24.65"/>
            </clipPath>
<clipPath id="terminal-3817147544-line-12">
    <rect x="0" y="294.3" width="1439.6" height="24.65"/>
            </clipPath>
<clipPath id="terminal-3817147544-line-13">
    <rect x="0" y="318.7" width="1439.6" height="24.65"/>
            </clipPath>
<clipPath id="terminal-3817147544-line-14">
    <rect x="0" y="343.1" width="1439.6" height="24.65"/>
            </clipPath>
<clipPath id="terminal-3817147544-line-15">
    <rect x="0" y="367.5" width="1439.6" height="24.65"/>
            </clipPath>
<clipPath id="terminal-3817147544-line-16">
    <rect x="0" y="391.9" width="1439.6" height="24.65"/>
            </clipPath>
<clipPath id="terminal-3817147544-line-17">
    <rect x="0" y="416.3" width="1439.6" height="24.65"/>
            </clipPath>
<clipPath id="terminal-3817147544-line-18">
    <rect x="0" y="440.7" width="1439.6" height="24.65"/>
            </clipPath>
<clipPath id="terminal-3817147544-line-19">
    <rect x="0" y="465.1" width="1439.6" height="24.65"/>
            </clipPath>
<clipPath id="terminal-3817147544-line-20">
    <rect x="0" y="489.5" width="1439.6" height="24.65"/>
            </clipPath>
<clipPath id="terminal-3817147544-line-21">
    <rect x="0" y="513.9" width="1439.6" height="24.65"/>
            </clipPath>
<clipPath id="terminal-3817147544-line-22">
    <rect x="0" y="538.3" width="1439.6" height="24.65"/>
            </clipPath>
<clipPath id="terminal-3817147544-line-23">
    <rect x="0" y="562.7" width="1439.6" height="24.65"/>
            </clipPath>
<clipPath id="terminal-3817147544-line-24">
    <rect x="0" y="587.1" width="1439.6" height="24.65"/>
            </clipPath>
<clipPath id="terminal-3817147544-line-25">
    <rect x="0" y="611.5" width="1439.6" height="24.65"/>
            </clipPath>
<clipPath id="terminal-3817147544-line-26">
    <rect x="0" y="635.9" width="1439.6" height="24.65"/>
            </clipPath>
<clipPath id="terminal-3817147544-line-27">
    <rect x="0" y="660.3" width="1439.6" height="24.65"/>
            </clipPath>
<clipPath id="terminal-3817147544-line-28">
    <rect x="0" y="684.7" width="1439.6" height="24.65"/>
            </clipPath>
<clipPath id="terminal-3817147544-line-29">
    <rect x="0" y="709.1" width="1439.6" height="24.65"/>
            </clipPath>
<clipPath id="terminal-3817147544-line-30">
    <rect x="0" y="733.5" width="1439.6" height="24.65"/>
            </clipPath>
<clipPath id="terminal-3817147544-line-31">
    <rect x="0" y="757.9" width="1439.6" height="24.65"/>
            </clipPath>
<clipPath id="terminal-3817147544-line-32">
    <rect x="0" y="782.3" width="1439.6" height="24.65"/>
            </clipPath>
<clipPath id="terminal-3817147544-line-33">
    <rect x="0" y="806.7" width="1439.6" height="24.65"/>
            </clipPath>
<clipPath id="terminal-3817147544-line-34">
    <rect x="0" y="831.1" width="1439.6" height="24.65"/>
            </clipPath>
<clipPath id="terminal-3817147544-line-35">
    <rect x="0" y="855.5" width="1439.6" height="24.65"/>
            </clipPath>
<clipPath id="terminal-3817147544-line-36">
    <rect x="0" y="879.9" width="1439.6" height="24.65"/>
            </clipPath>
    </defs>

    <rect fill="#292929" stroke="rgba(255,255,255,0.35)" stroke-width="1" x="1" y="1" width="1456" height="975.2" rx="8"/><text class="terminal-3817147544-title" fill="#c5c8c6" text-anchor="middle" x="728" y="27">octo&#160;--&#160;/home/omen/Dev/app</text>
            <g transform="translate(26,22)">
            <circle cx="0" cy="0" r="7" fill="#ff5f57"/>
            <circle cx="22" cy="0" r="7" fill="#febc2e"/>
            <circle cx="44" cy="0" r="7" fill="#28c840"/>
            </g>
        
    <g transform="translate(9, 41)" clip-path="url(#terminal-3817147544-clip-terminal)">
    <rect fill="#282726" x="0" y="1.5" width="12.2" height="24.65" shape-rendering="crispEdges"/><rect fill="#282726" x="12.2" y="1.5" width="12.2" height="24.65" shape-rendering="crispEdges"/><rect fill="#282726" x="24.4" y="1.5" width="61" height="24.65" shape-rendering="crispEdges"/><rect fill="#282726" x="85.4" y="1.5" width="12.2" height="24.65" shape-rendering="crispEdges"/><rect fill="#282726" x="97.6" y="1.5" width="451.4" height="24.65" shape-rendering="crispEdges"/><rect fill="#282726" x="549" y="1.5" width="317.2" height="24.65" shape-rendering="crispEdges"/><rect fill="#282726" x="866.2" y="1.5" width="451.4" height="24.65" shape-rendering="crispEdges"/><rect fill="#282726" x="1317.6" y="1.5" width="12.2" height="24.65" shape-rendering="crispEdges"/><rect fill="#282726" x="1329.8" y="1.5" width="0" height="24.65" shape-rendering="crispEdges"/><rect fill="#282726" x="1329.8" y="1.5" width="97.6" height="24.65" shape-rendering="crispEdges"/><rect fill="#282726" x="1427.4" y="1.5" width="12.2" height="24.65" shape-rendering="crispEdges"/><rect fill="#100f0f" x="0" y="25.9" width="97.6" height="24.65" shape-rendering="crispEdges"/><rect fill="#100f0f" x="97.6" y="25.9" width="1342" height="24.65" shape-rendering="crispEdges"/><rect fill="#100f0f" x="0" y="50.3" width="36.6" height="24.65" shape-rendering="crispEdges"/><rect fill="#100f0f" x="36.6" y="50.3" width="61" height="24.65" shape-rendering="crispEdges"/><rect fill="#100f0f" x="97.6" y="50.3" width="12.2" height="24.65" shape-rendering="crispEdges"/><rect fill="#100f0f" x="109.8" y="50.3" width="24.4" height="24.65" shape-rendering="crispEdges"/><rect fill="#100f0f" x="134.2" y="50.3" width="48.8" height="24.65" shape-rendering="crispEdges"/><rect fill="#100f0f" x="183" y="50.3" width="1256.6" height="24.65" shape-rendering="crispEdges"/><rect fill="#100f0f" x="0" y="74.7" width="97.6" height="24.65" shape-rendering="crispEdges"/><rect fill="#100f0f" x="97.6" y="74.7" width="36.6" height="24.65" shape-rendering="crispEdges"/><rect fill="#100f0f" x="134.2" y="74.7" width="439.2" height="24.65" shape-rendering="crispEdges"/><rect fill="#100f0f" x="573.4" y="74.7" width="866.2" height="24.65" shape-rendering="crispEdges"/><rect fill="#100f0f" x="0" y="99.1" width="109.8" height="24.65" shape-rendering="crispEdges"/><rect fill="#100f0f" x="109.8" y="99.1" width="1329.8" height="24.65" shape-rendering="crispEdges"/><rect fill="#100f0f" x="0" y="123.5" width="85.4" height="24.65" shape-rendering="crispEdges"/><rect fill="#100f0f" x="85.4" y="123.5" width="1354.2" height="24.65" shape-rendering="crispEdges"/><rect fill="#100f0f" x="0" y="147.9" width="12.2" height="24.65" shape-rendering="crispEdges"/><rect fill="#100f0f" x="12.2" y="147.9" width="12.2" height="24.65" shape-rendering="crispEdges"/><rect fill="#100f0f" x="24.4" y="147.9" width="1390.8" height="24.65" shape-rendering="crispEdges"/><rect fill="#100f0f" x="1415.2" y="147.9" width="12.2" height="24.65" shape-rendering="crispEdges"/><rect fill="#100f0f" x="1427.4" y="147.9" width="12.2" height="24.65" shape-rendering="crispEdges"/><rect fill="#100f0f" x="0" y="172.3" width="12.2" height="24.65" shape-rendering="crispEdges"/><rect fill="#100f0f" x="12.2" y="172.3" width="12.2" height="24.65" shape-rendering="crispEdges"/><rect fill="#100f0f" x="24.4" y="172.3" width="12.2" height="24.65" shape-rendering="crispEdges"/><rect fill="#100f0f" x="36.6" y="172.3" width="97.6" height="24.65" shape-rendering="crispEdges"/><rect fill="#100f0f" x="134.2" y="172.3" width="24.4" height="24.65" shape-rendering="crispEdges"/><rect fill="#100f0f" x="158.6" y="172.3" width="48.8" height="24.65" shape-rendering="crispEdges"/><rect fill="#100f0f" x="207.4" y="172.3" width="24.4" height="24.65" shape-rendering="crispEdges"/><rect fill="#100f0f" x="231.8" y="172.3" width="24.4" height="24.65" shape-rendering="crispEdges"/><rect fill="#100f0f" x="256.2" y="172.3" width="12.2" height="24.65" shape-rendering="crispEdges"/><rect fill="#100f0f" x="268.4" y="172.3" width="24.4" height="24.65" shape-rendering="crispEdges"/><rect fill="#100f0f" x="292.8" y="172.3" width="1110.2" height="24.65" shape-rendering="crispEdges"/><rect fill="#100f0f" x="1403" y="172.3" width="12.2" height="24.65" shape-rendering="crispEdges"/><rect fill="#100f0f" x="1415.2" y="172.3" width="12.2" height="24.65" shape-rendering="crispEdges"/><rect fill="#100f0f" x="1427.4" y="172.3" width="12.2" height="24.65" shape-rendering="crispEdges"/><rect fill="#100f0f" x="0" y="196.7" width="12.2" height="24.65" shape-rendering="crispEdges"/><rect fill="#100f0f" x="12.2" y="196.7" width="12.2" height="24.65" shape-rendering="crispEdges"/><rect fill="#100f0f" x="24.4" y="196.7" width="12.2" height="24.65" shape-rendering="crispEdges"/><rect fill="#100f0f" x="36.6" y="196.7" width="622.2" height="24.65" shape-rendering="crispEdges"/><rect fill="#100f0f" x="658.8" y="196.7" width="744.2" height="24.65" shape-rendering="crispEdges"/><rect fill="#100f0f" x="1403" y="196.7" width="12.2" height="24.65" shape-rendering="crispEdges"/><rect fill="#100f0f" x="1415.2" y="196.7" width="12.2" height="24.65" shape-rendering="crispEdges"/><rect fill="#100f0f" x="1427.4" y="196.7" width="12.2" height="24.65" shape-rendering="crispEdges"/><rect fill="#100f0f" x="0" y="221.1" width="12.2" height="24.65" shape-rendering="crispEdges"/><rect fill="#100f0f" x="12.2" y="221.1" width="12.2" height="24.65" shape-rendering="crispEdges"/><rect fill="#100f0f" x="24.4" y="221.1" width="1390.8" height="24.65" shape-rendering="crispEdges"/><rect fill="#100f0f" x="1415.2" y="221.1" width="12.2" height="24.65" shape-rendering="crispEdges"/><rect fill="#100f0f" x="1427.4" y="221.1" width="12.2" height="24.65" shape-rendering="crispEdges"/><rect fill="#100f0f" x="0" y="245.5" width="1439.6" height="24.65" shape-rendering="crispEdges"/><rect fill="#100f0f" x="0" y="269.9" width="12.2" height="24.65" shape-rendering="crispEdges"/><rect fill="#100f0f" x="12.2" y="269.9" width="12.2" height="24.65" shape-rendering="crispEdges"/><rect fill="#100f0f" x="24.4" y="269.9" width="1390.8" height="24.65" shape-rendering="crispEdges"/><rect fill="#100f0f" x="1415.2" y="269.9" width="12.2" height="24.65" shape-rendering="crispEdges"/><rect fill="#100f0f" x="1427.4" y="269.9" width="12.2" height="24.65" shape-rendering="crispEdges"/><rect fill="#100f0f" x="0" y="294.3" width="12.2" height="24.65" shape-rendering="crispEdges"/><rect fill="#100f0f" x="12.2" y="294.3" width="12.2" height="24.65" shape-rendering="crispEdges"/><rect fill="#100f0f" x="24.4" y="294.3" width="12.2" height="24.65" shape-rendering="crispEdges"/><rect fill="#100f0f" x="36.6" y="294.3" width="97.6" height="24.65" shape-rendering="crispEdges"/><rect fill="#100f0f" x="134.2" y="294.3" width="24.4" height="24.65" shape-rendering="crispEdges"/><rect fill="#100f0f" x="158.6" y="294.3" width="61" height="24.65" shape-rendering="crispEdges"/><rect fill="#100f0f" x="219.6" y="294.3" width="24.4" height="24.65" shape-rendering="crispEdges"/><rect fill="#100f0f" x="244" y="294.3" width="24.4" height="24.65" shape-rendering="crispEdges"/><rect fill="#100f0f" x="268.4" y="294.3" width="12.2" height="24.65" shape-rendering="crispEdges"/><rect fill="#100f0f" x="280.6" y="294.3" width="24.4" height="24.65" shape-rendering="crispEdges"/><rect fill="#100f0f" x="305" y="294.3" width="1098" height="24.65" shape-rendering="crispEdges"/><rect fill="#100f0f" x="1403" y="294.3" width="12.2" height="24.65" shape-rendering="crispEdges"/><rect fill="#100f0f" x="1415.2" y="294.3" width="12.2" height="24.65" shape-rendering="crispEdges"/><rect fill="#100f0f" x="1427.4" y="294.3" width="12.2" height="24.65" shape-rendering="crispEdges"/><rect fill="#100f0f" x="0" y="318.7" width="12.2" height="24.65" shape-rendering="crispEdges"/><rect fill="#100f0f" x="12.2" y="318.7" width="12.2" height="24.65" shape-rendering="crispEdges"/><rect fill="#100f0f" x="24.4" y="318.7" width="12.2" height="24.65" shape-rendering="crispEdges"/><rect fill="#100f0f" x="36.6" y="318.7" width="610" height="24.65" shape-rendering="crispEdges"/><rect fill="#100f0f" x="646.6" y="318.7" width="756.4" height="24.65" shape-rendering="crispEdges"/><rect fill="#100f0f" x="1403" y="318.7" width="12.2" height="24.65" shape-rendering="crispEdges"/><rect fill="#100f0f" x="1415.2" y="318.7" width="12.2" height="24.65" shape-rendering="crispEdges"/><rect fill="#100f0f" x="1427.4" y="318.7" width="12.2" height="24.65" shape-rendering="crispEdges"/><rect fill="#100f0f" x="0" y="343.1" width="12.2" height="24.65" shape-rendering="crispEdges"/><rect fill="#100f0f" x="12.2" y="343.1" width="12.2" height="24.65" shape-rendering="crispEdges"/><rect fill="#100f0f" x="24.4" y="343.1" width="12.2" height="24.65" shape-rendering="crispEdges"/><rect fill="#1c1b1a" x="36.6" y="343.1" width="1366.4" height="24.65" shape-rendering="crispEdges"/><rect fill="#100f0f" x="1403" y="343.1" width="12.2" height="24.65" shape-rendering="crispEdges"/><rect fill="#100f0f" x="1415.2" y="343.1" width="12.2" height="24.65" shape-rendering="crispEdges"/><rect fill="#100f0f" x="1427.4" y="343.1" width="12.2" height="24.65" shape-rendering="crispEdges"/><rect fill="#100f0f" x="0" y="367.5" width="12.2" height="24.65" shape-rendering="crispEdges"/><rect fill="#100f0f" x="12.2" y="367.5" width="12.2" height="24.65" shape-rendering="crispEdges"/><rect fill="#100f0f" x="24.4" y="367.5" width="12.2" height="24.65" shape-rendering="crispEdges"/><rect fill="#1c1b1a" x="36.6" y="367.5" width="12.2" height="24.65" shape-rendering="crispEdges"/><rect fill="#1c1b1a" x="48.8" y="367.5" width="12.2" height="24.65" shape-rendering="crispEdges"/><rect fill="#1c1b1a" x="61" y="367.5" width="292.8" height="24.65" shape-rendering="crispEdges"/><rect fill="#1c1b1a" x="353.8" y="367.5" width="24.4" height="24.65" shape-rendering="crispEdges"/><rect fill="#1c1b1a" x="378.2" y="367.5" width="12.2" height="24.65" shape-rendering="crispEdges"/><rect fill="#1c1b1a" x="390.4" y="367.5" width="24.4" height="24.65" shape-rendering="crispEdges"/><rect fill="#1c1b1a" x="414.8" y="367.5" width="12.2" height="24.65" shape-rendering="crispEdges"/><rect fill="#1c1b1a" x="427" y="367.5" width="976" height="24.65" shape-rendering="crispEdges"/><rect fill="#100f0f" x="1403" y="367.5" width="12.2" height="24.65" shape-rendering="crispEdges"/><rect fill="#100f0f" x="1415.2" y="367.5" width="12.2" height="24.65" shape-rendering="crispEdges"/><rect fill="#100f0f" x="1427.4" y="367.5" width="12.2" height="24.65" shape-rendering="crispEdges"/><rect fill="#100f0f" x="0" y="391.9" width="12.2" height="24.65" shape-rendering="crispEdges"/><rect fill="#100f0f" x="12.2" y="391.9" width="12.2" height="24.65" shape-rendering="crispEdges"/><rect fill="#100f0f" x="24.4" y="391.9" width="12.2" height="24.65" shape-rendering="crispEdges"/><rect fill="#1c1b1a" x="36.6" y="391.9" width="1366.4" height="24.65" shape-rendering="crispEdges"/><rect fill="#100f0f" x="1403" y="391.9" width="12.2" height="24.65" shape-rendering="crispEdges"/><rect fill="#100f0f" x="1415.2" y="391.9" width="12.2" height="24.65" shape-rendering="crispEdges"/><rect fill="#100f0f" x="1427.4" y="391.9" width="12.2" height="24.65" shape-rendering="crispEdges"/><rect fill="#100f0f" x="0" y="416.3" width="12.2" height="24.65" shape-rendering="crispEdges"/><rect fill="#100f0f" x="12.2" y="416.3" width="12.2" height="24.65" shape-rendering="crispEdges"/><rect fill="#100f0f" x="24.4" y="416.3" width="1390.8" height="24.65" shape-rendering="crispEdges"/><rect fill="#100f0f" x="1415.2" y="416.3" width="12.2" height="24.65" shape-rendering="crispEdges"/><rect fill="#100f0f" x="1427.4" y="416.3" width="12.2" height="24.65" shape-rendering="crispEdges"/><rect fill="#100f0f" x="0" y="440.7" width="1439.6" height="24.65" shape-rendering="crispEdges"/><rect fill="#100f0f" x="0" y="465.1" width="12.2" height="24.65" shape-rendering="crispEdges"/><rect fill="#100f0f" x="12.2" y="465.1" width="12.2" height="24.65" shape-rendering="crispEdges"/><rect fill="#100f0f" x="24.4" y="465.1" width="1390.8" height="24.65" shape-rendering="crispEdges"/><rect fill="#100f0f" x="1415.2" y="465.1" width="12.2" height="24.65" shape-rendering="crispEdges"/><rect fill="#100f0f" x="1427.4" y="465.1" width="12.2" height="24.65" shape-rendering="crispEdges"/><rect fill="#100f0f" x="0" y="489.5" width="12.2" height="24.65" shape-rendering="crispEdges"/><rect fill="#100f0f" x="12.2" y="489.5" width="12.2" height="24.65" shape-rendering="crispEdges"/><rect fill="#100f0f" x="24.4" y="489.5" width="12.2" height="24.65" shape-rendering="crispEdges"/><rect fill="#100f0f" x="36.6" y="489.5" width="97.6" height="24.65" shape-rendering="crispEdges"/><rect fill="#100f0f" x="134.2" y="489.5" width="24.4" height="24.65" shape-rendering="crispEdges"/><rect fill="#100f0f" x="158.6" y="489.5" width="73.2" height="24.65" shape-rendering="crispEdges"/><rect fill="#100f0f" x="231.8" y="489.5" width="24.4" height="24.65" shape-rendering="crispEdges"/><rect fill="#100f0f" x="256.2" y="489.5" width="24.4" height="24.65" shape-rendering="crispEdges"/><rect fill="#100f0f" x="280.6" y="489.5" width="12.2" height="24.65" shape-rendering="crispEdges"/><rect fill="#100f0f" x="292.8" y="489.5" width="24.4" height="24.65" shape-rendering="crispEdges"/><rect fill="#100f0f" x="317.2" y="489.5" width="878.4" height="24.65" shape-rendering="crispEdges"/><rect fill="#ac8301" x="1195.6" y="489.5" width="12.2" height="24.65" shape-rendering="crispEdges"/><rect fill="#ac8301" x="1207.8" y="489.5" width="183" height="24.65" shape-rendering="crispEdges"/><rect fill="#ac8301" x="1390.8" y="489.5" width="12.2" height="24.65" shape-rendering="crispEdges"/><rect fill="#100f0f" x="1403" y="489.5" width="12.2" height="24.65" shape-rendering="crispEdges"/><rect fill="#100f0f" x="1415.2" y="489.5" width="12.2" height="24.65" shape-rendering="crispEdges"/><rect fill="#100f0f" x="1427.4" y="489.5" width="12.2" height="24.65" shape-rendering="crispEdges"/><rect fill="#100f0f" x="0" y="513.9" width="12.2" height="24.65" shape-rendering="crispEdges"/><rect fill="#100f0f" x="12.2" y="513.9" width="12.2" height="24.65" shape-rendering="crispEdges"/><rect fill="#100f0f" x="24.4" y="513.9" width="12.2" height="24.65" shape-rendering="crispEdges"/><rect fill="#100f0f" x="36.6" y="513.9" width="1256.6" height="24.65" shape-rendering="crispEdges"/><rect fill="#100f0f" x="1293.2" y="513.9" width="109.8" height="24.65" shape-rendering="crispEdges"/><rect fill="#100f0f" x="1403" y="513.9" width="12.2" height="24.65" shape-rendering="crispEdges"/><rect fill="#100f0f" x="1415.2" y="513.9" width="12.2" height="24.65" shape-rendering="crispEdges"/><rect fill="#100f0f" x="1427.4" y="513.9" width="12.2" height="24.65" shape-rendering="crispEdges"/><rect fill="#100f0f" x="0" y="538.3" width="12.2" height="24.65" shape-rendering="crispEdges"/><rect fill="#100f0f" x="12.2" y="538.3" width="12.2" height="24.65" shape-rendering="crispEdges"/><rect fill="#100f0f" x="24.4" y="538.3" width="12.2" height="24.65" shape-rendering="crispEdges"/><rect fill="#1c1b1a" x="36.6" y="538.3" width="1366.4" height="24.65" shape-rendering="crispEdges"/><rect fill="#100f0f" x="1403" y="538.3" width="12.2" height="24.65" shape-rendering="crispEdges"/><rect fill="#100f0f" x="1415.2" y="538.3" width="12.2" height="24.65" shape-rendering="crispEdges"/><rect fill="#100f0f" x="1427.4" y="538.3" width="12.2" height="24.65" shape-rendering="crispEdges"/><rect fill="#100f0f" x="0" y="562.7" width="12.2" height="24.65" shape-rendering="crispEdges"/><rect fill="#100f0f" x="12.2" y="562.7" width="12.2" height="24.65" shape-rendering="crispEdges"/><rect fill="#100f0f" x="24.4" y="562.7" width="12.2" height="24.65" shape-rendering="crispEdges"/><rect fill="#1c1b1a" x="36.6" y="562.7" width="12.2" height="24.65" shape-rendering="crispEdges"/><rect fill="#1c1b1a" x="48.8" y="562.7" width="12.2" height="24.65" shape-rendering="crispEdges"/><rect fill="#1c1b1a" x="61" y="562.7" width="744.2" height="24.65" shape-rendering="crispEdges"/><rect fill="#1c1b1a" x="805.2" y="562.7" width="24.4" height="24.65" shape-rendering="crispEdges"/><rect fill="#1c1b1a" x="829.6" y="562.7" width="12.2" height="24.65" shape-rendering="crispEdges"/><rect fill="#1c1b1a" x="841.8" y="562.7" width="24.4" height="24.65" shape-rendering="crispEdges"/><rect fill="#1c1b1a" x="866.2" y="562.7" width="12.2" height="24.65" shape-rendering="crispEdges"/><rect fill="#1c1b1a" x="878.4" y="562.7" width="524.6" height="24.65" shape-rendering="crispEdges"/><rect fill="#100f0f" x="1403" y="562.7" width="12.2" height="24.65" shape-rendering="crispEdges"/><rect fill="#100f0f" x="1415.2" y="562.7" width="12.2" height="24.65" shape-rendering="crispEdges"/><rect fill="#100f0f" x="1427.4" y="562.7" width="12.2" height="24.65" shape-rendering="crispEdges"/><rect fill="#100f0f" x="0" y="587.1" width="12.2" height="24.65" shape-rendering="crispEdges"/><rect fill="#100f0f" x="12.2" y="587.1" width="12.2" height="24.65" shape-rendering="crispEdges"/><rect fill="#100f0f" x="24.4" y="587.1" width="12.2" height="24.65" shape-rendering="crispEdges"/><rect fill="#1c1b1a" x="36.6" y="587.1" width="1366.4" height="24.65" shape-rendering="crispEdges"/><rect fill="#100f0f" x="1403" y="587.1" width="12.2" height="24.65" shape-rendering="crispEdges"/><rect fill="#100f0f" x="1415.2" y="587.1" width="12.2" height="24.65" shape-rendering="crispEdges"/><rect fill="#100f0f" x="1427.4" y="587.1" width="12.2" height="24.65" shape-rendering="crispEdges"/><rect fill="#100f0f" x="0" y="611.5" width="12.2" height="24.65" shape-rendering="crispEdges"/><rect fill="#100f0f" x="12.2" y="611.5" width="12.2" height="24.65" shape-rendering="crispEdges"/><rect fill="#100f0f" x="24.4" y="611.5" width="1390.8" height="24.65" shape-rendering="crispEdges"/><rect fill="#100f0f" x="1415.2" y="611.5" width="12.2" height="24.65" shape-rendering="crispEdges"/><rect fill="#100f0f" x="1427.4" y="611.5" width="12.2" height="24.65" shape-rendering="crispEdges"/><rect fill="#100f0f" x="0" y="635.9" width="1439.6" height="24.65" shape-rendering="crispEdges"/><rect fill="#100f0f" x="0" y="660.3" width="1439.6" height="24.65" shape-rendering="crispEdges"/><rect fill="#100f0f" x="0" y="684.7" width="1439.6" height="24.65" shape-rendering="crispEdges"/><rect fill="#100f0f" x="0" y="709.1" width="1439.6" height="24.65" shape-rendering="crispEdges"/><rect fill="#100f0f" x="0" y="733.5" width="1439.6" height="24.65" shape-rendering="crispEdges"/><rect fill="#100f0f" x="0" y="757.9" width="1439.6" height="24.65" shape-rendering="crispEdges"/><rect fill="#100f0f" x="0" y="782.3" width="1439.6" height="24.65" shape-rendering="crispEdges"/><rect fill="#100f0f" x="0" y="806.7" width="1439.6" height="24.65" shape-rendering="crispEdges"/><rect fill="#100f0f" x="0" y="831.1" width="1439.6" height="24.65" shape-rendering="crispEdges"/><rect fill="#100f0f" x="0" y="855.5" width="1439.6" height="24.65" shape-rendering="crispEdges"/><rect fill="#100f0f" x="0" y="879.9" width="1439.6" height="24.65" shape-rendering="crispEdges"/><rect fill="#282726" x="0" y="904.3" width="36.6" height="24.65" shape-rendering="crispEdges"/><rect fill="#282726" x="36.6" y="904.3" width="61" height="24.65" shape-rendering="crispEdges"/><rect fill="#282726" x="97.6" y="904.3" width="36.6" height="24.65" shape-rendering="crispEdges"/><rect fill="#282726" x="134.2" y="904.3" width="158.6" height="24.65" shape-rendering="crispEdges"/><rect fill="#282726" x="292.8" y="904.3" width="36.6" height="24.65" shape-rendering="crispEdges"/><rect fill="#282726" x="329.4" y="904.3" width="268.4" height="24.65" shape-rendering="crispEdges"/><rect fill="#282726" x="597.8" y="904.3" width="36.6" height="24.65" shape-rendering="crispEdges"/><rect fill="#282726" x="634.4" y="904.3" width="146.4" height="24.65" shape-rendering="crispEdges"/><rect fill="#282726" x="780.8" y="904.3" width="512.4" height="24.65" shape-rendering="crispEdges"/><rect fill="#282726" x="1293.2" y="904.3" width="12.2" height="24.65" shape-rendering="crispEdges"/><rect fill="#282726" x="1305.4" y="904.3" width="24.4" height="24.65" shape-rendering="crispEdges"/><rect fill="#282726" x="1329.8" y="904.3" width="97.6" height="24.65" shape-rendering="crispEdges"/><rect fill="#282726" x="1427.4" y="904.3" width="12.2" height="24.65" shape-rendering="crispEdges"/>
    <g class="terminal-3817147544-matrix">
    <text class="terminal-3817147544-r2" x="12.2" y="20" textLength="12.2" clip-path="url(#terminal-3817147544-line-0)">⭘</text><text class="terminal-3817147544-r2" x="549" y="20" textLength="317.2" clip-path="url(#terminal-3817147544-line-0)">octo&#160;--&#160;/home/omen/Dev/app</text><text class="terminal-3817147544-r1" x="1439.6" y="20" textLength="12.2" clip-path="url(#terminal-3817147544-line-0)">
</text><text class="terminal-3817147544-r3" x="0" y="44.4" textLength="97.6" clip-path="url(#terminal-3817147544-line-1)">&#160;&#160;&#160;,---.</text><text class="terminal-3817147544-r1" x="1439.6" y="44.4" textLength="12.2" clip-path="url(#terminal-3817147544-line-1)">
</text><text class="terminal-3817147544-r3" x="0" y="68.8" textLength="36.6" clip-path="url(#terminal-3817147544-line-2)">&#160;&#160;(</text><text class="terminal-3817147544-r4" x="36.6" y="68.8" textLength="61" clip-path="url(#terminal-3817147544-line-2)">&#160;@&#160;@&#160;</text><text class="terminal-3817147544-r3" x="97.6" y="68.8" textLength="12.2" clip-path="url(#terminal-3817147544-line-2)">)</text><text class="terminal-3817147544-r3" x="134.2" y="68.8" textLength="48.8" clip-path="url(#terminal-3817147544-line-2)">OCTO</text><text class="terminal-3817147544-r1" x="1439.6" y="68.8" textLength="12.2" clip-path="url(#terminal-3817147544-line-2)">
</text><text class="terminal-3817147544-r3" x="0" y="93.2" textLength="97.6" clip-path="url(#terminal-3817147544-line-3)">&#160;&#160;&#160;).-.(</text><text class="terminal-3817147544-r5" x="134.2" y="93.2" textLength="439.2" clip-path="url(#terminal-3817147544-line-3)">Tracking&#160;files&#160;across&#160;agent&#160;sessions</text><text class="terminal-3817147544-r1" x="1439.6" y="93.2" textLength="12.2" clip-path="url(#terminal-3817147544-line-3)">
</text><text class="terminal-3817147544-r3" x="0" y="117.6" textLength="109.8" clip-path="url(#terminal-3817147544-line-4)">&#160;&#160;&#x27;/|||\`</text><text class="terminal-3817147544-r1" x="1439.6" y="117.6" textLength="12.2" clip-path="url(#terminal-3817147544-line-4)">
</text><text class="terminal-3817147544-r3" x="0" y="142" textLength="85.4" clip-path="url(#terminal-3817147544-line-5)">&#160;&#160;&#160;&#160;&#x27;|`</text><text class="terminal-3817147544-r1" x="1439.6" y="142" textLength="12.2" clip-path="url(#terminal-3817147544-line-5)">
</text><text class="terminal-3817147544-r6" x="12.2" y="166.4" textLength="12.2" clip-path="url(#terminal-3817147544-line-6)">╭</text><text class="terminal-3817147544-r6" x="24.4" y="166.4" textLength="1390.8" clip-path="url(#terminal-3817147544-line-6)">──────────────────────────────────────────────────────────────────────────────────────────────────────────────────</text><text class="terminal-3817147544-r6" x="1415.2" y="166.4" textLength="12.2" clip-path="url(#terminal-3817147544-line-6)">╮</text><text class="terminal-3817147544-r1" x="1439.6" y="166.4" textLength="12.2" clip-path="url(#terminal-3817147544-line-6)">
</text><text class="terminal-3817147544-r6" x="12.2" y="190.8" textLength="12.2" clip-path="url(#terminal-3817147544-line-7)">│</text><text class="terminal-3817147544-r7" x="36.6" y="190.8" textLength="97.6" clip-path="url(#terminal-3817147544-line-7)">11:04:34</text><text class="terminal-3817147544-r7" x="158.6" y="190.8" textLength="48.8" clip-path="url(#terminal-3817147544-line-7)">Init</text><text class="terminal-3817147544-r8" x="231.8" y="190.8" textLength="24.4" clip-path="url(#terminal-3817147544-line-7)">+0</text><text class="terminal-3817147544-r9" x="268.4" y="190.8" textLength="24.4" clip-path="url(#terminal-3817147544-line-7)">-0</text><text class="terminal-3817147544-r6" x="1415.2" y="190.8" textLength="12.2" clip-path="url(#terminal-3817147544-line-7)">│</text><text class="terminal-3817147544-r1" x="1439.6" y="190.8" textLength="12.2" clip-path="url(#terminal-3817147544-line-7)">
</text><text class="terminal-3817147544-r6" x="12.2" y="215.2" textLength="12.2" clip-path="url(#terminal-3817147544-line-8)">│</text><text class="terminal-3817147544-r5" x="36.6" y="215.2" textLength="622.2" clip-path="url(#terminal-3817147544-line-8)">(startup&#160;baseline&#160;--&#160;no&#160;changes&#160;since&#160;the&#160;last&#160;run)</text><text class="terminal-3817147544-r6" x="1415.2" y="215.2" textLength="12.2" clip-path="url(#terminal-3817147544-line-8)">│</text><text class="terminal-3817147544-r1" x="1439.6" y="215.2" textLength="12.2" clip-path="url(#terminal-3817147544-line-8)">
</text><text class="terminal-3817147544-r6" x="12.2" y="239.6" textLength="12.2" clip-path="url(#terminal-3817147544-line-9)">╰</text><text class="terminal-3817147544-r6" x="24.4" y="239.6" textLength="1390.8" clip-path="url(#terminal-3817147544-line-9)">──────────────────────────────────────────────────────────────────────────────────────────────────────────────────</text><text class="terminal-3817147544-r6" x="1415.2" y="239.6" textLength="12.2" clip-path="url(#terminal-3817147544-line-9)">╯</text><text class="terminal-3817147544-r1" x="1439.6" y="239.6" textLength="12.2" clip-path="url(#terminal-3817147544-line-9)">
</text><text class="terminal-3817147544-r1" x="1439.6" y="264" textLength="12.2" clip-path="url(#terminal-3817147544-line-10)">
</text><text class="terminal-3817147544-r6" x="12.2" y="288.4" textLength="12.2" clip-path="url(#terminal-3817147544-line-11)">╭</text><text class="terminal-3817147544-r6" x="24.4" y="288.4" textLength="1390.8" clip-path="url(#terminal-3817147544-line-11)">──────────────────────────────────────────────────────────────────────────────────────────────────────────────────</text><text class="terminal-3817147544-r6" x="1415.2" y="288.4" textLength="12.2" clip-path="url(#terminal-3817147544-line-11)">╮</text><text class="terminal-3817147544-r1" x="1439.6" y="288.4" textLength="12.2" clip-path="url(#terminal-3817147544-line-11)">
</text><text class="terminal-3817147544-r6" x="12.2" y="312.8" textLength="12.2" clip-path="url(#terminal-3817147544-line-12)">│</text><text class="terminal-3817147544-r7" x="36.6" y="312.8" textLength="97.6" clip-path="url(#terminal-3817147544-line-12)">11:11:48</text><text class="terminal-3817147544-r7" x="158.6" y="312.8" textLength="61" clip-path="url(#terminal-3817147544-line-12)">Human</text><text class="terminal-3817147544-r8" x="244" y="312.8" textLength="24.4" clip-path="url(#terminal-3817147544-line-12)">+1</text><text class="terminal-3817147544-r9" x="280.6" y="312.8" textLength="24.4" clip-path="url(#terminal-3817147544-line-12)">-1</text><text class="terminal-3817147544-r6" x="1415.2" y="312.8" textLength="12.2" clip-path="url(#terminal-3817147544-line-12)">│</text><text class="terminal-3817147544-r1" x="1439.6" y="312.8" textLength="12.2" clip-path="url(#terminal-3817147544-line-12)">
</text><text class="terminal-3817147544-r6" x="12.2" y="337.2" textLength="12.2" clip-path="url(#terminal-3817147544-line-13)">│</text><text class="terminal-3817147544-r5" x="36.6" y="337.2" textLength="610" clip-path="url(#terminal-3817147544-line-13)">(no&#160;matching&#160;agent&#160;tool&#160;call&#160;--&#160;likely&#160;human&#160;edit)</text><text class="terminal-3817147544-r6" x="1415.2" y="337.2" textLength="12.2" clip-path="url(#terminal-3817147544-line-13)">│</text><text class="terminal-3817147544-r1" x="1439.6" y="337.2" textLength="12.2" clip-path="url(#terminal-3817147544-line-13)">
</text><text class="terminal-3817147544-r6" x="12.2" y="361.6" textLength="12.2" clip-path="url(#terminal-3817147544-line-14)">│</text><text class="terminal-3817147544-r10" x="36.6" y="361.6" textLength="1366.4" clip-path="url(#terminal-3817147544-line-14)">▔▔▔▔▔▔▔▔▔▔▔▔▔▔▔▔▔▔▔▔▔▔▔▔▔▔▔▔▔▔▔▔▔▔▔▔▔▔▔▔▔▔▔▔▔▔▔▔▔▔▔▔▔▔▔▔▔▔▔▔▔▔▔▔▔▔▔▔▔▔▔▔▔▔▔▔▔▔▔▔▔▔▔▔▔▔▔▔▔▔▔▔▔▔▔▔▔▔▔▔▔▔▔▔▔▔▔▔▔▔▔▔</text><text class="terminal-3817147544-r6" x="1415.2" y="361.6" textLength="12.2" clip-path="url(#terminal-3817147544-line-14)">│</text><text class="terminal-3817147544-r1" x="1439.6" y="361.6" textLength="12.2" clip-path="url(#terminal-3817147544-line-14)">
</text><text class="terminal-3817147544-r6" x="12.2" y="386" textLength="12.2" clip-path="url(#terminal-3817147544-line-15)">│</text><text class="terminal-3817147544-r2" x="61" y="386" textLength="292.8" clip-path="url(#terminal-3817147544-line-15)">▶&#160;supabase/config.toml&#160;&#160;</text><text class="terminal-3817147544-r8" x="353.8" y="386" textLength="24.4" clip-path="url(#terminal-3817147544-line-15)">+1</text><text class="terminal-3817147544-r9" x="390.4" y="386" textLength="24.4" clip-path="url(#terminal-3817147544-line-15)">-1</text><text class="terminal-3817147544-r6" x="1415.2" y="386" textLength="12.2" clip-path="url(#terminal-3817147544-line-15)">│</text><text class="terminal-3817147544-r1" x="1439.6" y="386" textLength="12.2" clip-path="url(#terminal-3817147544-line-15)">
</text><text class="terminal-3817147544-r6" x="12.2" y="410.4" textLength="12.2" clip-path="url(#terminal-3817147544-line-16)">│</text><text class="terminal-3817147544-r6" x="1415.2" y="410.4" textLength="12.2" clip-path="url(#terminal-3817147544-line-16)">│</text><text class="terminal-3817147544-r1" x="1439.6" y="410.4" textLength="12.2" clip-path="url(#terminal-3817147544-line-16)">
</text><text class="terminal-3817147544-r6" x="12.2" y="434.8" textLength="12.2" clip-path="url(#terminal-3817147544-line-17)">╰</text><text class="terminal-3817147544-r6" x="24.4" y="434.8" textLength="1390.8" clip-path="url(#terminal-3817147544-line-17)">──────────────────────────────────────────────────────────────────────────────────────────────────────────────────</text><text class="terminal-3817147544-r6" x="1415.2" y="434.8" textLength="12.2" clip-path="url(#terminal-3817147544-line-17)">╯</text><text class="terminal-3817147544-r1" x="1439.6" y="434.8" textLength="12.2" clip-path="url(#terminal-3817147544-line-17)">
</text><text class="terminal-3817147544-r1" x="1439.6" y="459.2" textLength="12.2" clip-path="url(#terminal-3817147544-line-18)">
</text><text class="terminal-3817147544-r6" x="12.2" y="483.6" textLength="12.2" clip-path="url(#terminal-3817147544-line-19)">╭</text><text class="terminal-3817147544-r6" x="24.4" y="483.6" textLength="1390.8" clip-path="url(#terminal-3817147544-line-19)">──────────────────────────────────────────────────────────────────────────────────────────────────────────────────</text><text class="terminal-3817147544-r6" x="1415.2" y="483.6" textLength="12.2" clip-path="url(#terminal-3817147544-line-19)">╮</text><text class="terminal-3817147544-r1" x="1439.6" y="483.6" textLength="12.2" clip-path="url(#terminal-3817147544-line-19)">
</text><text class="terminal-3817147544-r6" x="12.2" y="508" textLength="12.2" clip-path="url(#terminal-3817147544-line-20)">│</text><text class="terminal-3817147544-r7" x="36.6" y="508" textLength="97.6" clip-path="url(#terminal-3817147544-line-20)">11:26:37</text><text class="terminal-3817147544-r3" x="158.6" y="508" textLength="73.2" clip-path="url(#terminal-3817147544-line-20)">Claude</text><text class="terminal-3817147544-r8" x="256.2" y="508" textLength="24.4" clip-path="url(#terminal-3817147544-line-20)">+9</text><text class="terminal-3817147544-r9" x="292.8" y="508" textLength="24.4" clip-path="url(#terminal-3817147544-line-20)">-3</text><text class="terminal-3817147544-r7" x="1207.8" y="508" textLength="183" clip-path="url(#terminal-3817147544-line-20)">&#160;Revert&#160;prompt&#160;</text><text class="terminal-3817147544-r6" x="1415.2" y="508" textLength="12.2" clip-path="url(#terminal-3817147544-line-20)">│</text><text class="terminal-3817147544-r1" x="1439.6" y="508" textLength="12.2" clip-path="url(#terminal-3817147544-line-20)">
</text><text class="terminal-3817147544-r6" x="12.2" y="532.4" textLength="12.2" clip-path="url(#terminal-3817147544-line-21)">│</text><text class="terminal-3817147544-r11" x="36.6" y="532.4" textLength="1256.6" clip-path="url(#terminal-3817147544-line-21)">in&#160;@flutter_app/&#160;i&#160;just&#160;added&#160;someone&#160;to&#160;my&#160;friends&#160;froom&#160;the&#160;@flutter_app/lib/ui/main_screen.dart&#160;....</text><text class="terminal-3817147544-r6" x="1415.2" y="532.4" textLength="12.2" clip-path="url(#terminal-3817147544-line-21)">│</text><text class="terminal-3817147544-r1" x="1439.6" y="532.4" textLength="12.2" clip-path="url(#terminal-3817147544-line-21)">
</text><text class="terminal-3817147544-r6" x="12.2" y="556.8" textLength="12.2" clip-path="url(#terminal-3817147544-line-22)">│</text><text class="terminal-3817147544-r10" x="36.6" y="556.8" textLength="1366.4" clip-path="url(#terminal-3817147544-line-22)">▔▔▔▔▔▔▔▔▔▔▔▔▔▔▔▔▔▔▔▔▔▔▔▔▔▔▔▔▔▔▔▔▔▔▔▔▔▔▔▔▔▔▔▔▔▔▔▔▔▔▔▔▔▔▔▔▔▔▔▔▔▔▔▔▔▔▔▔▔▔▔▔▔▔▔▔▔▔▔▔▔▔▔▔▔▔▔▔▔▔▔▔▔▔▔▔▔▔▔▔▔▔▔▔▔▔▔▔▔▔▔▔</text><text class="terminal-3817147544-r6" x="1415.2" y="556.8" textLength="12.2" clip-path="url(#terminal-3817147544-line-22)">│</text><text class="terminal-3817147544-r1" x="1439.6" y="556.8" textLength="12.2" clip-path="url(#terminal-3817147544-line-22)">
</text><text class="terminal-3817147544-r6" x="12.2" y="581.2" textLength="12.2" clip-path="url(#terminal-3817147544-line-23)">│</text><text class="terminal-3817147544-r2" x="61" y="581.2" textLength="744.2" clip-path="url(#terminal-3817147544-line-23)">▶&#160;flutter_app/lib/backend/repositories/chat_repository.dart&#160;&#160;</text><text class="terminal-3817147544-r8" x="805.2" y="581.2" textLength="24.4" clip-path="url(#terminal-3817147544-line-23)">+9</text><text class="terminal-3817147544-r9" x="841.8" y="581.2" textLength="24.4" clip-path="url(#terminal-3817147544-line-23)">-3</text><text class="terminal-3817147544-r6" x="1415.2" y="581.2" textLength="12.2" clip-path="url(#terminal-3817147544-line-23)">│</text><text class="terminal-3817147544-r1" x="1439.6" y="581.2" textLength="12.2" clip-path="url(#terminal-3817147544-line-23)">
</text><text class="terminal-3817147544-r6" x="12.2" y="605.6" textLength="12.2" clip-path="url(#terminal-3817147544-line-24)">│</text><text class="terminal-3817147544-r6" x="1415.2" y="605.6" textLength="12.2" clip-path="url(#terminal-3817147544-line-24)">│</text><text class="terminal-3817147544-r1" x="1439.6" y="605.6" textLength="12.2" clip-path="url(#terminal-3817147544-line-24)">
</text><text class="terminal-3817147544-r6" x="12.2" y="630" textLength="12.2" clip-path="url(#terminal-3817147544-line-25)">╰</text><text class="terminal-3817147544-r6" x="24.4" y="630" textLength="1390.8" clip-path="url(#terminal-3817147544-line-25)">──────────────────────────────────────────────────────────────────────────────────────────────────────────────────</text><text class="terminal-3817147544-r6" x="1415.2" y="630" textLength="12.2" clip-path="url(#terminal-3817147544-line-25)">╯</text><text class="terminal-3817147544-r1" x="1439.6" y="630" textLength="12.2" clip-path="url(#terminal-3817147544-line-25)">
</text><text class="terminal-3817147544-r1" x="1439.6" y="654.4" textLength="12.2" clip-path="url(#terminal-3817147544-line-26)">
</text><text class="terminal-3817147544-r1" x="1439.6" y="678.8" textLength="12.2" clip-path="url(#terminal-3817147544-line-27)">
</text><text class="terminal-3817147544-r1" x="1439.6" y="703.2" textLength="12.2" clip-path="url(#terminal-3817147544-line-28)">
</text><text class="terminal-3817147544-r1" x="1439.6" y="727.6" textLength="12.2" clip-path="url(#terminal-3817147544-line-29)">
</text><text class="terminal-3817147544-r1" x="1439.6" y="752" textLength="12.2" clip-path="url(#terminal-3817147544-line-30)">
</text><text class="terminal-3817147544-r1" x="1439.6" y="776.4" textLength="12.2" clip-path="url(#terminal-3817147544-line-31)">
</text><text class="terminal-3817147544-r1" x="1439.6" y="800.8" textLength="12.2" clip-path="url(#terminal-3817147544-line-32)">
</text><text class="terminal-3817147544-r1" x="1439.6" y="825.2" textLength="12.2" clip-path="url(#terminal-3817147544-line-33)">
</text><text class="terminal-3817147544-r1" x="1439.6" y="849.6" textLength="12.2" clip-path="url(#terminal-3817147544-line-34)">
</text><text class="terminal-3817147544-r1" x="1439.6" y="874" textLength="12.2" clip-path="url(#terminal-3817147544-line-35)">
</text><text class="terminal-3817147544-r1" x="1439.6" y="898.4" textLength="12.2" clip-path="url(#terminal-3817147544-line-36)">
</text><text class="terminal-3817147544-r3" x="0" y="922.8" textLength="36.6" clip-path="url(#terminal-3817147544-line-37)">&#160;q&#160;</text><text class="terminal-3817147544-r2" x="36.6" y="922.8" textLength="61" clip-path="url(#terminal-3817147544-line-37)">Quit&#160;</text><text class="terminal-3817147544-r3" x="97.6" y="922.8" textLength="36.6" clip-path="url(#terminal-3817147544-line-37)">&#160;l&#160;</text><text class="terminal-3817147544-r2" x="134.2" y="922.8" textLength="158.6" clip-path="url(#terminal-3817147544-line-37)">Load&#160;history&#160;</text><text class="terminal-3817147544-r3" x="292.8" y="922.8" textLength="36.6" clip-path="url(#terminal-3817147544-line-37)">&#160;c&#160;</text><text class="terminal-3817147544-r2" x="329.4" y="922.8" textLength="268.4" clip-path="url(#terminal-3817147544-line-37)">Clear&#160;cache&#160;(84.9&#160;MB)&#160;</text><text class="terminal-3817147544-r3" x="597.8" y="922.8" textLength="36.6" clip-path="url(#terminal-3817147544-line-37)">&#160;i&#160;</text><text class="terminal-3817147544-r2" x="634.4" y="922.8" textLength="146.4" clip-path="url(#terminal-3817147544-line-37)">Edit&#160;ignore&#160;</text><text class="terminal-3817147544-r12" x="1293.2" y="922.8" textLength="12.2" clip-path="url(#terminal-3817147544-line-37)">▏</text><text class="terminal-3817147544-r3" x="1305.4" y="922.8" textLength="24.4" clip-path="url(#terminal-3817147544-line-37)">^p</text><text class="terminal-3817147544-r2" x="1329.8" y="922.8" textLength="97.6" clip-path="url(#terminal-3817147544-line-37)">&#160;palette</text>
    </g>
    </g>
</svg>
